<?xml version="1.0" standalone="no"?>
<svg version="1.0" xmlns="http://www.w3.org/2000/svg"
  width="1024.000000pt" height="1024.000000pt" viewBox="0 0 1024.000000 1024.000000"
  preserveAspectRatio="xMidYMid meet">

  <g transform="translate(0.000000,1024.000000) scale(0.100000,-0.100000)"
    fill="#fff" stroke="none">
    <path
      d="M6026 8325 c-123 -31 -236 -117 -287 -217 -15 -29 -25 -38 -45 -38
-101 0 -262 -75 -454 -210 -257 -181 -368 -223 -590 -224 -162 -1 -240 16
-365 79 l-85 42 27 -48 c125 -231 385 -379 668 -382 179 -1 312 42 451 147 72
54 111 99 189 221 58 91 140 185 161 185 7 0 13 -22 16 -53 6 -73 54 -171 120
-242 30 -33 62 -71 71 -85 34 -50 15 -163 -36 -218 -42 -45 -76 -55 -217 -63
-156 -8 -294 -35 -465 -90 -291 -93 -629 -256 -757 -364 -129 -111 -335 -358
-533 -640 -54 -77 -133 -185 -174 -240 -119 -155 -198 -338 -202 -466 -3 -56
5 -69 39 -69 21 0 54 28 159 136 73 75 133 134 133 132 0 -2 -4 -18 -9 -36
-22 -74 25 -84 94 -21 55 51 64 81 72 233 l6 119 156 157 c86 86 238 231 339
321 l183 164 117 43 c143 53 347 107 467 123 113 15 328 6 415 -16 96 -25 245
-99 326 -160 72 -56 144 -132 206 -220 67 -95 64 -100 -20 -32 -188 153 -417
250 -625 264 l-88 6 20 -34 c33 -59 70 -194 83 -307 10 -96 10 -120 -6 -198
-19 -98 -58 -189 -106 -247 -18 -20 -93 -84 -169 -141 -203 -154 -285 -251
-332 -387 -18 -54 -20 -80 -17 -166 4 -96 7 -108 46 -187 91 -183 282 -333
569 -447 248 -98 550 -178 898 -238 109 -19 110 -19 75 -32 -100 -36 -348
-171 -639 -346 -179 -108 -346 -205 -370 -216 -53 -23 -86 -13 -96 31 -3 17
-14 37 -25 47 -23 21 -194 95 -219 95 -68 0 -160 -189 -161 -330 0 -27 8 -58
19 -76 l19 -31 -44 -86 c-55 -107 -74 -179 -74 -282 0 -128 55 -282 111 -310
25 -13 33 -13 61 -2 49 21 56 35 67 129 17 149 80 259 222 392 189 175 480
292 1169 470 453 117 569 150 645 186 130 62 195 150 195 266 0 84 -32 143
-129 238 -295 292 -923 623 -1476 777 l-140 39 80 -6 c44 -3 102 -10 129 -15
54 -10 66 -6 66 21 0 39 60 251 100 351 107 268 210 431 376 594 140 138 157
167 156 270 0 122 -49 214 -230 435 -97 120 -120 161 -133 241 -16 97 14 239
59 284 26 27 29 27 102 19 125 -13 170 -11 185 9 13 19 55 178 55 211 0 11 18
36 40 57 22 21 40 44 40 52 0 7 -14 26 -31 43 -64 61 -74 89 -74 204 -1 58 -7
123 -14 145 -32 99 -126 183 -251 226 -84 28 -231 35 -314 14z" />
    <path
      d="M7656 7098 c-8 -18 -19 -63 -27 -100 -12 -67 -13 -68 -45 -68 -47 0
-57 -19 -53 -102 4 -61 11 -88 47 -162 49 -102 53 -84 -47 -208 -132 -164
-367 -358 -435 -358 -13 0 -216 231 -321 365 -21 28 -43 54 -47 59 -4 5 -3 -6
2 -25 16 -52 13 -208 -4 -255 -25 -73 -47 -108 -95 -153 l-46 -43 74 -70 c100
-94 304 -246 369 -276 88 -40 156 -19 273 85 237 211 494 595 613 915 53 144
51 159 -37 265 -138 165 -194 198 -221 131z" />
    <path
      d="M4774 4643 c-207 -393 -463 -762 -577 -832 -18 -11 -90 -40 -160 -64
-329 -115 -458 -262 -627 -717 -76 -205 -167 -428 -186 -457 -22 -34 -73 -31
-109 7 l-29 30 -118 0 c-141 0 -152 -7 -163 -93 -8 -66 0 -139 27 -225 14 -48
31 -75 64 -108 l44 -45 0 -105 c0 -123 17 -198 65 -293 59 -119 177 -231 242
-231 40 0 88 41 80 68 -3 9 -17 49 -31 87 -21 59 -26 88 -26 177 0 127 9 179
57 317 70 202 274 508 516 776 236 263 322 333 939 770 292 206 600 454 697
559 l24 26 -34 12 c-183 63 -494 291 -586 430 -14 21 -29 38 -34 38 -4 0 -38
-57 -75 -127z" />
  </g>
</svg>